<svg display="none" xmlns="http://www.w3.org/2000/svg">
    <symbol id="back" viewBox="0 0 20 20">
      <g>
		<path d="M16 9.35124H6.49462L9.94396 5.91735L9.02248 5L4 10L9.02248 15L9.94396 14.0827L6.49462 10.6488H16V9.35124Z"/>
	</g>
    </symbol>

    <symbol id="search" viewBox="0 0 24 24">
        <g>
		    <path d="M15.5 14H14.71L14.43 13.73C15.4439 12.554 16.0011 11.0527 16 9.5C16 8.21442 15.6188 6.95772 14.9046 5.8888C14.1903 4.81988 13.1752 3.98676 11.9874 3.49479C10.7997 3.00282 9.49279 2.87409 8.23191 3.1249C6.97104 3.3757 5.81285 3.99477 4.90381 4.90381C3.99477 5.81285 3.3757 6.97104 3.1249 8.23191C2.87409 9.49279 3.00282 10.7997 3.49479 11.9874C3.98676 13.1752 4.81988 14.1903 5.8888 14.9046C6.95772 15.6188 8.21442 16 9.5 16C11.11 16 12.59 15.41 13.73 14.43L14 14.71V15.5L19 20.49L20.49 19L15.5 14ZM9.5 14C7.01 14 5 11.99 5 9.5C5 7.01 7.01 5 9.5 5C11.99 5 14 7.01 14 9.5C14 11.99 11.99 14 9.5 14Z"/>
	    </g>
    </symbol>

     <symbol id="approval" viewBox="0 0 24 24">
        <g>
		    <path d="M21.9025 12.6673L20.7237 10.7953L21.4229 8.69439C21.469 8.55543 21.466 8.4047 21.4144 8.26773C21.3628 8.13075 21.2657 8.01595 21.1396 7.94277L19.2321 6.83566L18.8813 4.64801C18.8577 4.50337 18.7853 4.37134 18.6763 4.27414C18.5674 4.17694 18.4284 4.12052 18.283 4.11438L16.0828 4.02765L14.7628 2.25409C14.6756 2.13673 14.5506 2.05343 14.4093 2.01838C14.2679 1.98333 14.1189 1.99871 13.9875 2.06189L12 3.01352L10.0117 2.06111C9.88018 1.99861 9.73124 1.98368 9.59002 2.01883C9.4488 2.05398 9.32393 2.13707 9.23646 2.25409L7.91638 4.02765L5.71626 4.11438C5.57091 4.12023 5.43203 4.17647 5.32313 4.27357C5.21424 4.37067 5.14202 4.50267 5.11869 4.64723L4.76792 6.83488L2.86037 7.94199C2.73416 8.01505 2.63693 8.1298 2.58516 8.26678C2.53339 8.40377 2.53027 8.55456 2.57633 8.6936L3.27556 10.7945L2.0975 12.6673C2.01979 12.7913 1.987 12.9385 2.00467 13.084C2.02235 13.2295 2.08941 13.3644 2.19451 13.4658L3.7831 14.9995L3.6046 17.2075C3.59273 17.3536 3.63136 17.4993 3.71394 17.6201C3.79653 17.7408 3.91801 17.8291 4.05782 17.87L6.17258 18.4833L7.03323 20.5233C7.08973 20.6585 7.19113 20.7698 7.32009 20.838C7.44905 20.9063 7.59755 20.9274 7.74022 20.8976L9.89766 20.4522L11.6003 21.8562C11.716 21.9508 11.858 22 12 22C12.142 22 12.2833 21.9508 12.3997 21.8562L14.1023 20.4522L16.2598 20.8976C16.5524 20.9601 16.8496 20.8015 16.9668 20.5233L17.8274 18.4833L19.9422 17.87C20.0821 17.8292 20.2036 17.741 20.2862 17.6202C20.3689 17.4994 20.4074 17.3536 20.3954 17.2075L20.2169 14.9995L21.8055 13.4658C21.9106 13.3644 21.9776 13.2295 21.9953 13.084C22.013 12.9385 21.9802 12.7913 21.9025 12.6673ZM16.5609 9.61164L12.1443 16.273C11.9775 16.5215 11.7191 16.6879 11.4622 16.6879C11.2061 16.6879 10.9197 16.5434 10.7374 16.359L7.49498 13.0423C7.3887 12.9326 7.32922 12.7854 7.32922 12.6322C7.32922 12.4789 7.3887 12.3317 7.49498 12.222L8.2951 11.4016C8.34753 11.3485 8.40987 11.3064 8.47852 11.2777C8.54718 11.2489 8.6208 11.2341 8.69516 11.2341C8.76951 11.2341 8.84314 11.2489 8.91179 11.2777C8.98045 11.3064 9.04278 11.3485 9.09521 11.4016L11.2053 13.5596L14.6852 8.31076C14.7264 8.24817 14.7796 8.19448 14.8417 8.15281C14.9038 8.11115 14.9735 8.08235 15.0467 8.06809C15.12 8.05384 15.1953 8.05441 15.2684 8.06979C15.3414 8.08516 15.4106 8.11502 15.4721 8.15763L16.4103 8.80689C16.6688 8.98659 16.7355 9.34834 16.5609 9.61164Z"/>
	    </g>
    </symbol>
    <symbol id="view" viewBox="0 0 20 20">
        <g>
		    <path d="M10 5.17908C5.28375 5.17908 1.5625 10.0003 1.5625 10.0003C1.5625 10.0003 5.28375 14.8222 10 14.8222C13.6062 14.8222 18.4375 10.0003 18.4375 10.0003C18.4375 10.0003 13.6062 5.17908 10 5.17908ZM10 13.0041C8.34375 13.0041 6.99563 11.6566 6.99563 10.0003C6.99563 8.34408 8.34375 6.99595 10 6.99595C11.6562 6.99595 13.0044 8.34408 13.0044 10.0003C13.0044 11.6566 11.6562 13.0047 10 13.0047V13.0041ZM10 8.24658C9.76695 8.24218 9.53536 8.28428 9.31877 8.37042C9.10218 8.45656 8.90494 8.58502 8.73857 8.74828C8.5722 8.91153 8.44004 9.10632 8.34983 9.32124C8.25961 9.53617 8.21314 9.76692 8.21314 10C8.21314 10.2331 8.25961 10.4639 8.34983 10.6788C8.44004 10.8937 8.5722 11.0885 8.73857 11.2518C8.90494 11.415 9.10218 11.5435 9.31877 11.6296C9.53536 11.7158 9.76695 11.7579 10 11.7535C10.4593 11.7448 10.8969 11.5562 11.2186 11.2283C11.5404 10.9005 11.7206 10.4594 11.7206 10C11.7206 9.54063 11.5404 9.09958 11.2186 8.77169C10.8969 8.4438 10.4593 8.25525 10 8.24658Z"/>
	    </g>
    </symbol>
    <symbol id="up" viewBox="0 0 490.523 490.523">
        <g>
            <path d="M487.411,355.047L252.744,120.38c-4.165-4.164-10.917-4.164-15.083,0L2.994,355.047
            c-4.093,4.237-3.976,10.99,0.262,15.083c4.134,3.993,10.687,3.993,14.821,0l227.115-227.115l227.115,227.136
            c4.237,4.093,10.99,3.976,15.083-0.261c3.993-4.134,3.993-10.688,0-14.821L487.411,355.047z"/>
            <path d="M479.859,373.266c-2.831,0.005-5.548-1.115-7.552-3.115L245.192,143.015L18.077,370.151
            c-4.237,4.093-10.99,3.976-15.083-0.262c-3.993-4.134-3.993-10.687,0-14.821l234.667-234.667c4.165-4.164,10.917-4.164,15.083,0
            l234.667,234.667c4.159,4.172,4.148,10.926-0.024,15.085C485.388,372.146,482.681,373.265,479.859,373.266z"/>
	    </g>
    </symbol>
</svg>

